
<svg xmlns="http://www.w3.org/2000/svg" xml:space="preserve" id="Layer_1" x="0" y="0" version="1.1" viewBox="0 0 70 68.002"><style>.st0{fill:#e20613}</style><path d="M16.076 35.644a6.467 6.467 0 002.904 5.398c.157.104.357-.025.357-.213V.433A.433.433 0 0018.904 0H16.51a.433.433 0 00-.434.433v35.211zm-4.839-4.86a6.466 6.466 0 002.885 5.384c.156.104.355-.025.355-.212V.433A.434.434 0 0014.043 0H11.67a.433.433 0 00-.434.433v30.351zm55.739-15.568c-.041-.086-.171-.052-.165.043a9.583 9.583 0 01-.063 1.766c-.436 3.417-2.584 6.421-5.472 8.155-.182.109-.199.361-.049.511l1.746 1.745a.546.546 0 00.693.057 9.71 9.71 0 004.274-8.052 9.663 9.663 0 00-.964-4.225z" class="st0"/><path d="M65.95 14.581a9.693 9.693 0 00-.964-4.226c-.041-.086-.171-.052-.165.043a9.583 9.583 0 01-.063 1.766c-.529 4.146-3.578 7.684-7.412 9.081-.189.069-.258.308-.115.451l1.792 1.792a.666.666 0 00.708.161c3.638-1.406 6.219-4.934 6.219-9.068z" class="st0"/><path d="M63.312 12.961a9.713 9.713 0 00-.749-8.1 9.777 9.777 0 00-1.173-1.62A9.692 9.692 0 0054.147 0H35.972a.433.433 0 00-.434.433v33.589H24.197V.433A.433.433 0 0023.764 0h-2.381a.433.433 0 00-.434.433v40.071a6.504 6.504 0 003.248 5.61 6.446 6.446 0 003.231.869h20.637c.24 0 .434-.194.434-.433V12.961h11.255c-1.288 2.243-4.006 3.651-6.817 3.986-.168.02-.228.229-.109.348l1.809 1.808c.198.199.48.295.758.259a9.729 9.729 0 007.917-6.401zM24.197 37.263h14.581V3.24h15.368c1.641 0 3.135.615 4.277 1.62H40.811a.433.433 0 00-.433.433v33.589H24.197v-1.619zM45.685 9.721a.433.433 0 00-.433.433v33.589H27.417a3.23 3.23 0 01-2.79-1.62h18.579c.24 0 .434-.194.434-.433V8.1h16.776c.134.519.212 1.06.212 1.62H45.685z" class="st0"/><path d="M11.566 65.783c0 .475-.106.882-.316 1.222-.21.339-.6.584-1.17.733-.272.068-.57.119-.896.153-.326.034-.651.058-.977.071-.326.013-.631.023-.916.031-.285.007-.516.01-.692.01-1.167 0-2.168-.099-3.003-.295-.835-.197-1.517-.533-2.046-1.008-.529-.475-.916-1.106-1.16-1.894-.244-.787-.367-1.778-.367-2.973L0 53.933c0-.163.041-.275.122-.336a.568.568 0 01.346-.092h2.179c.203 0 .336.027.397.082.061.054.092.17.092.346v8.083c0 .557.047 1.042.142 1.456.095.414.265.757.509 1.028.244.272.574.472.988.601.414.129.947.194 1.598.194.095 0 .224-.003.387-.01l.539-.021c.197-.007.4-.02.611-.041.21-.02.404-.051.581-.092V53.933c0-.163.037-.275.112-.336.075-.061.194-.092.356-.092h2.159c.204 0 .329.027.376.082.048.054.072.17.072.346v11.85zm5.314-6.882v8.43c0 .177-.03.292-.092.346-.061.054-.186.082-.376.082h-2.138c-.163 0-.282-.03-.356-.092-.075-.061-.112-.173-.112-.336V54.91c0-.529.095-.899.285-1.109.19-.21.536-.316 1.038-.316h.855c.204 0 .377.01.519.03a.967.967 0 01.377.133c.108.068.21.163.305.285.095.122.204.278.326.468l5.213 8.023h.102v-8.511c0-.163.03-.275.091-.336.062-.061.186-.092.377-.092h2.138c.312 0 .468.142.468.428v12.441c0 .435-.088.777-.265 1.028-.176.251-.529.377-1.059.377h-.855c-.204 0-.377-.01-.519-.03a.95.95 0 01-.377-.132 1.276 1.276 0 01-.305-.275 4.854 4.854 0 01-.326-.458l-5.213-7.961h-.101zm14.283 8.775c-.061.054-.194.082-.397.082h-2.159c-.163 0-.282-.03-.356-.092-.075-.061-.112-.173-.112-.336V53.933c0-.163.038-.275.112-.336.074-.061.193-.092.356-.092h2.159c.203 0 .336.027.397.082.061.054.091.17.091.346V67.33c0 .177-.03.292-.091.346zm20.898-2.891h-4.663l-.794 2.586a.593.593 0 01-.173.295c-.075.061-.207.092-.397.092h-2.383c-.149 0-.241-.041-.275-.122a.448.448 0 01-.01-.285l4.235-12.767c.068-.231.146-.417.234-.56.088-.142.19-.255.305-.336.115-.082.251-.139.407-.173.156-.033.336-.051.539-.051h1.222c.231 0 .427.01.59.03.163.02.305.071.428.153.122.081.227.197.315.346.088.15.173.346.255.591l4.235 12.767a.443.443 0 010 .265c-.027.095-.115.142-.265.142h-2.422c-.149 0-.275-.017-.377-.051-.102-.034-.173-.125-.213-.275l-.793-2.647zm-3.93-2.504h3.197l-1.527-5.518h-.122l-1.548 5.518zm-3.989-6.129a3.937 3.937 0 00-.946-1.405 4.468 4.468 0 00-1.507-.926c-.59-.224-1.252-.336-1.985-.336h-4.988c-.489 0-.814.112-.977.336-.162.224-.244.526-.244.906V67.33c0 .163.038.275.112.336.074.061.193.092.356.092H36.1c.204 0 .336-.024.397-.071.062-.047.092-.166.092-.356V56.213h2.647c.407 0 .743.065 1.008.193.265.129.475.292.632.489.156.197.261.407.315.631.054.224.081.431.081.621 0 .543-.163 1.001-.489 1.374-.326.373-.835.56-1.527.56h-1.122a.46.46 0 00-.367.735l1.188 1.585a.46.46 0 00.342.184c1.141 0 2.054-.177 2.739-.53.685-.353 1.208-.777 1.568-1.273.36-.495.594-1.004.703-1.527.109-.522.163-.96.163-1.313a4.803 4.803 0 00-.328-1.79zm25.77 10.912l-3.858-5.145c.565-.324 1.013-.7 1.328-1.135.36-.495.593-1.004.703-1.527.108-.522.163-.96.163-1.313 0-.652-.109-1.249-.326-1.792a3.926 3.926 0 00-.947-1.405 4.448 4.448 0 00-1.507-.926c-.59-.224-1.252-.336-1.985-.336h-4.989c-.489 0-.814.112-.977.336-.163.224-.244.526-.244.906V67.33c0 .163.038.275.112.336.074.061.193.092.356.092h2.138c.204 0 .336-.024.397-.071.061-.047.091-.166.091-.356V56.213h2.647c.407 0 .743.065 1.008.193.265.129.475.292.631.489.156.197.261.407.315.631.054.224.082.431.082.621 0 .543-.163 1.001-.489 1.374-.326.373-.835.56-1.527.56h-1.122a.459.459 0 00-.368.735l4.685 6.247c.327.436.843.694 1.387.694h1.948a.433.433 0 00.348-.693z" fill="#1d1d1b"/></svg>